<svg xmlns="http://www.w3.org/2000/svg" viewBox="0 0 600 320" width="600" height="320">
  <defs>
    <style>
      text { font-family: "Noto Sans CJK SC", "WenQuanYi Micro Hei", sans-serif; }
    </style>
  </defs>
  <rect width="600" height="320" fill="#FAFAFA" rx="8"/>
  <text x="300" y="30" text-anchor="middle" font-size="15" font-weight="bold" fill="#333">金字塔帮你把几千里挑一变成几分钟</text>

  <!-- 左侧：筛选前 -->
  <rect x="40" y="55" width="240" height="220" fill="#E74C3C" opacity="0.05" rx="10"/>
  <text x="160" y="80" text-anchor="middle" font-size="13" font-weight="bold" fill="#E74C3C">没有金字塔</text>
  
  <!-- 很多小圆点 -->
  <circle cx="80" cy="115" r="5" fill="#E74C3C" opacity="0.3"/>
  <circle cx="100" cy="108" r="4" fill="#E74C3C" opacity="0.3"/>
  <circle cx="120" cy="120" r="6" fill="#E74C3C" opacity="0.3"/>
  <circle cx="145" cy="105" r="4" fill="#E74C3C" opacity="0.3"/>
  <circle cx="160" cy="118" r="5" fill="#E74C3C" opacity="0.3"/>
  <circle cx="180" cy="108" r="4" fill="#E74C3C" opacity="0.3"/>
  <circle cx="200" cy="122" r="5" fill="#E74C3C" opacity="0.3"/>
  <circle cx="215" cy="110" r="4" fill="#E74C3C" opacity="0.3"/>
  <circle cx="130" cy="135" r="5" fill="#E74C3C" opacity="0.3"/>
  <circle cx="155" cy="140" r="4" fill="#E74C3C" opacity="0.3"/>
  <circle cx="175" cy="132" r="5" fill="#E74C3C" opacity="0.3"/>
  <circle cx="195" cy="145" r="4" fill="#E74C3C" opacity="0.3"/>
  <circle cx="85" cy="155" r="5" fill="#E74C3C" opacity="0.3"/>
  <circle cx="110" cy="150" r="4" fill="#E74C3C" opacity="0.3"/>
  <circle cx="140" cy="165" r="5" fill="#E74C3C" opacity="0.3"/>
  <circle cx="170" cy="160" r="4" fill="#E74C3C" opacity="0.3"/>
  <circle cx="210" cy="155" r="5" fill="#E74C3C" opacity="0.3"/>
  <circle cx="100" cy="185" r="4" fill="#E74C3C" opacity="0.3"/>
  <circle cx="130" cy="180" r="5" fill="#E74C3C" opacity="0.3"/>
  <circle cx="160" cy="190" r="4" fill="#E74C3C" opacity="0.3"/>
  <circle cx="190" cy="182" r="5" fill="#E74C3C" opacity="0.3"/>
  <circle cx="120" cy="210" r="4" fill="#E74C3C" opacity="0.3"/>
  <circle cx="150" cy="220" r="5" fill="#E74C3C" opacity="0.3"/>
  <circle cx="180" cy="215" r="4" fill="#E74C3C" opacity="0.3"/>
  <circle cx="140" cy="245" r="4" fill="#E74C3C" opacity="0.3"/>

  <text x="160" y="260" text-anchor="middle" font-size="11" font-weight="bold" fill="#E74C3C">几千只股票，手动翻到崩溃</text>

  <!-- 中间箭头 -->
  <text x="310" y="170" text-anchor="middle" font-size="24" fill="#3498DB" font-weight="bold">→</text>
  <text x="310" y="190" text-anchor="middle" font-size="11" fill="#3498DB">金字塔筛选</text>

  <!-- 右侧：筛选后 -->
  <rect x="330" y="55" width="230" height="220" fill="#27AE60" opacity="0.05" rx="10"/>
  <text x="445" y="80" text-anchor="middle" font-size="13" font-weight="bold" fill="#27AE60">有了金字塔</text>

  <!-- 一个小圈子 -->
  <ellipse cx="445" cy="160" rx="60" ry="55" fill="#27AE60" opacity="0.1"/>
  <ellipse cx="445" cy="160" rx="60" ry="55" fill="none" stroke="#27AE60" stroke-width="1.5" stroke-dasharray="4,2"/>
  
  <circle cx="420" cy="145" r="6" fill="#27AE60" opacity="0.5"/>
  <circle cx="450" cy="140" r="6" fill="#27AE60" opacity="0.5"/>
  <circle cx="470" cy="155" r="6" fill="#27AE60" opacity="0.5"/>
  <circle cx="435" cy="170" r="6" fill="#27AE60" opacity="0.5"/>
  <circle cx="460" cy="175" r="6" fill="#27AE60" opacity="0.5"/>

  <text x="445" y="240" text-anchor="middle" font-size="11" font-weight="bold" fill="#27AE60">观察池 5-8只</text>
  <text x="445" y="258" text-anchor="middle" font-size="10" fill="#666">半小时搞定</text>

  <!-- 底部说明 -->
  <text x="300" y="310" text-anchor="middle" font-size="11" fill="#999">不是替你选股，是帮你快速缩小范围</text>
</svg>